<mxfile host="app.diagrams.net" modified="2023-10-10T06:04:27.992Z" agent="Mozilla/5.0 (Windows NT 10.0; Win64; x64) AppleWebKit/537.36 (KHTML, like Gecko) Chrome/117.0.0.0 Safari/537.36" etag="SKHSYhu5dX21Gq7cwYdU" version="21.7.0" type="google">
  <diagram name="페이지-1" id="MVJnAQSuqI1WkFKeXlbQ">
    <mxGraphModel grid="1" page="1" gridSize="10" guides="1" tooltips="1" connect="1" arrows="1" fold="1" pageScale="1" pageWidth="1169" pageHeight="1654" math="0" shadow="0">
      <root>
        <mxCell id="0" />
        <mxCell id="1" parent="0" />
        <mxCell id="zQkLF3AgblcyHscI9oYV-233" value="Board Exam" style="shape=table;startSize=40;container=1;collapsible=1;childLayout=tableLayout;fixedRows=1;rowLines=0;fontStyle=1;align=center;resizeLast=1;html=1;" vertex="1" parent="1">
          <mxGeometry y="80" width="520" height="280" as="geometry" />
        </mxCell>
        <mxCell id="zQkLF3AgblcyHscI9oYV-234" style="shape=tableRow;horizontal=0;startSize=0;swimlaneHead=0;swimlaneBody=0;fillColor=none;collapsible=0;dropTarget=0;points=[[0,0.5],[1,0.5]];portConstraint=eastwest;top=0;left=0;right=0;bottom=1;" vertex="1" parent="zQkLF3AgblcyHscI9oYV-233">
          <mxGeometry y="40" width="520" height="40" as="geometry" />
        </mxCell>
        <mxCell id="zQkLF3AgblcyHscI9oYV-235" style="shape=partialRectangle;connectable=0;fillColor=none;top=0;left=0;bottom=0;right=0;fontStyle=1;overflow=hidden;whiteSpace=wrap;html=1;" vertex="1" parent="zQkLF3AgblcyHscI9oYV-234">
          <mxGeometry width="40" height="40" as="geometry">
            <mxRectangle width="40" height="40" as="alternateBounds" />
          </mxGeometry>
        </mxCell>
        <mxCell id="zQkLF3AgblcyHscI9oYV-236" value="Logical Name" style="shape=partialRectangle;connectable=0;fillColor=none;top=0;left=0;bottom=0;right=0;align=center;spacingLeft=6;fontStyle=5;overflow=hidden;whiteSpace=wrap;html=1;" vertex="1" parent="zQkLF3AgblcyHscI9oYV-234">
          <mxGeometry x="40" width="120" height="40" as="geometry">
            <mxRectangle width="120" height="40" as="alternateBounds" />
          </mxGeometry>
        </mxCell>
        <mxCell id="zQkLF3AgblcyHscI9oYV-237" value="Physical" style="shape=partialRectangle;connectable=0;fillColor=none;top=0;left=0;bottom=0;right=0;align=center;spacingLeft=6;fontStyle=5;overflow=hidden;whiteSpace=wrap;html=1;" vertex="1" parent="zQkLF3AgblcyHscI9oYV-234">
          <mxGeometry x="160" width="120" height="40" as="geometry">
            <mxRectangle width="120" height="40" as="alternateBounds" />
          </mxGeometry>
        </mxCell>
        <mxCell id="zQkLF3AgblcyHscI9oYV-238" value="Type" style="shape=partialRectangle;connectable=0;fillColor=none;top=0;left=0;bottom=0;right=0;align=center;spacingLeft=6;fontStyle=5;overflow=hidden;whiteSpace=wrap;html=1;" vertex="1" parent="zQkLF3AgblcyHscI9oYV-234">
          <mxGeometry x="280" width="120" height="40" as="geometry">
            <mxRectangle width="120" height="40" as="alternateBounds" />
          </mxGeometry>
        </mxCell>
        <mxCell id="zQkLF3AgblcyHscI9oYV-239" value="Default" style="shape=partialRectangle;connectable=0;fillColor=none;top=0;left=0;bottom=0;right=0;align=center;spacingLeft=6;fontStyle=5;overflow=hidden;whiteSpace=wrap;html=1;" vertex="1" parent="zQkLF3AgblcyHscI9oYV-234">
          <mxGeometry x="400" width="80" height="40" as="geometry">
            <mxRectangle width="80" height="40" as="alternateBounds" />
          </mxGeometry>
        </mxCell>
        <mxCell id="zQkLF3AgblcyHscI9oYV-350" value="Null" style="shape=partialRectangle;connectable=0;fillColor=none;top=0;left=0;bottom=0;right=0;align=center;spacingLeft=6;fontStyle=5;overflow=hidden;whiteSpace=wrap;html=1;" vertex="1" parent="zQkLF3AgblcyHscI9oYV-234">
          <mxGeometry x="480" width="40" height="40" as="geometry">
            <mxRectangle width="40" height="40" as="alternateBounds" />
          </mxGeometry>
        </mxCell>
        <mxCell id="zQkLF3AgblcyHscI9oYV-240" value="" style="shape=tableRow;horizontal=0;startSize=0;swimlaneHead=0;swimlaneBody=0;fillColor=none;collapsible=0;dropTarget=0;points=[[0,0.5],[1,0.5]];portConstraint=eastwest;top=0;left=0;right=0;bottom=1;" vertex="1" parent="zQkLF3AgblcyHscI9oYV-233">
          <mxGeometry y="80" width="520" height="40" as="geometry" />
        </mxCell>
        <mxCell id="zQkLF3AgblcyHscI9oYV-241" value="PK" style="shape=partialRectangle;connectable=0;fillColor=none;top=0;left=0;bottom=0;right=0;fontStyle=1;overflow=hidden;whiteSpace=wrap;html=1;" vertex="1" parent="zQkLF3AgblcyHscI9oYV-240">
          <mxGeometry width="40" height="40" as="geometry">
            <mxRectangle width="40" height="40" as="alternateBounds" />
          </mxGeometry>
        </mxCell>
        <mxCell id="zQkLF3AgblcyHscI9oYV-242" value="게시물 번호" style="shape=partialRectangle;connectable=0;fillColor=none;top=0;left=0;bottom=0;right=0;align=center;spacingLeft=6;fontStyle=5;overflow=hidden;whiteSpace=wrap;html=1;" vertex="1" parent="zQkLF3AgblcyHscI9oYV-240">
          <mxGeometry x="40" width="120" height="40" as="geometry">
            <mxRectangle width="120" height="40" as="alternateBounds" />
          </mxGeometry>
        </mxCell>
        <mxCell id="zQkLF3AgblcyHscI9oYV-243" value="bno" style="shape=partialRectangle;connectable=0;fillColor=none;top=0;left=0;bottom=0;right=0;align=center;spacingLeft=6;fontStyle=5;overflow=hidden;whiteSpace=wrap;html=1;" vertex="1" parent="zQkLF3AgblcyHscI9oYV-240">
          <mxGeometry x="160" width="120" height="40" as="geometry">
            <mxRectangle width="120" height="40" as="alternateBounds" />
          </mxGeometry>
        </mxCell>
        <mxCell id="zQkLF3AgblcyHscI9oYV-244" value="number(10,0)" style="shape=partialRectangle;connectable=0;fillColor=none;top=0;left=0;bottom=0;right=0;align=center;spacingLeft=6;fontStyle=5;overflow=hidden;whiteSpace=wrap;html=1;" vertex="1" parent="zQkLF3AgblcyHscI9oYV-240">
          <mxGeometry x="280" width="120" height="40" as="geometry">
            <mxRectangle width="120" height="40" as="alternateBounds" />
          </mxGeometry>
        </mxCell>
        <mxCell id="zQkLF3AgblcyHscI9oYV-245" style="shape=partialRectangle;connectable=0;fillColor=none;top=0;left=0;bottom=0;right=0;align=center;spacingLeft=6;fontStyle=5;overflow=hidden;whiteSpace=wrap;html=1;" vertex="1" parent="zQkLF3AgblcyHscI9oYV-240">
          <mxGeometry x="400" width="80" height="40" as="geometry">
            <mxRectangle width="80" height="40" as="alternateBounds" />
          </mxGeometry>
        </mxCell>
        <mxCell id="zQkLF3AgblcyHscI9oYV-351" style="shape=partialRectangle;connectable=0;fillColor=none;top=0;left=0;bottom=0;right=0;align=center;spacingLeft=6;fontStyle=5;overflow=hidden;whiteSpace=wrap;html=1;" vertex="1" parent="zQkLF3AgblcyHscI9oYV-240">
          <mxGeometry x="480" width="40" height="40" as="geometry">
            <mxRectangle width="40" height="40" as="alternateBounds" />
          </mxGeometry>
        </mxCell>
        <mxCell id="zQkLF3AgblcyHscI9oYV-246" value="" style="shape=tableRow;horizontal=0;startSize=0;swimlaneHead=0;swimlaneBody=0;fillColor=none;collapsible=0;dropTarget=0;points=[[0,0.5],[1,0.5]];portConstraint=eastwest;top=0;left=0;right=0;bottom=1;" vertex="1" parent="zQkLF3AgblcyHscI9oYV-233">
          <mxGeometry y="120" width="520" height="40" as="geometry" />
        </mxCell>
        <mxCell id="zQkLF3AgblcyHscI9oYV-247" value="" style="shape=partialRectangle;connectable=0;fillColor=none;top=0;left=0;bottom=0;right=0;fontStyle=1;overflow=hidden;whiteSpace=wrap;html=1;" vertex="1" parent="zQkLF3AgblcyHscI9oYV-246">
          <mxGeometry width="40" height="40" as="geometry">
            <mxRectangle width="40" height="40" as="alternateBounds" />
          </mxGeometry>
        </mxCell>
        <mxCell id="zQkLF3AgblcyHscI9oYV-248" value="제목" style="shape=partialRectangle;connectable=0;fillColor=none;top=0;left=0;bottom=0;right=0;align=center;spacingLeft=6;fontStyle=5;overflow=hidden;whiteSpace=wrap;html=1;" vertex="1" parent="zQkLF3AgblcyHscI9oYV-246">
          <mxGeometry x="40" width="120" height="40" as="geometry">
            <mxRectangle width="120" height="40" as="alternateBounds" />
          </mxGeometry>
        </mxCell>
        <mxCell id="zQkLF3AgblcyHscI9oYV-249" value="title" style="shape=partialRectangle;connectable=0;fillColor=none;top=0;left=0;bottom=0;right=0;align=center;spacingLeft=6;fontStyle=5;overflow=hidden;whiteSpace=wrap;html=1;" vertex="1" parent="zQkLF3AgblcyHscI9oYV-246">
          <mxGeometry x="160" width="120" height="40" as="geometry">
            <mxRectangle width="120" height="40" as="alternateBounds" />
          </mxGeometry>
        </mxCell>
        <mxCell id="zQkLF3AgblcyHscI9oYV-250" value="varchar2(90)" style="shape=partialRectangle;connectable=0;fillColor=none;top=0;left=0;bottom=0;right=0;align=center;spacingLeft=6;fontStyle=5;overflow=hidden;whiteSpace=wrap;html=1;" vertex="1" parent="zQkLF3AgblcyHscI9oYV-246">
          <mxGeometry x="280" width="120" height="40" as="geometry">
            <mxRectangle width="120" height="40" as="alternateBounds" />
          </mxGeometry>
        </mxCell>
        <mxCell id="zQkLF3AgblcyHscI9oYV-251" value="" style="shape=partialRectangle;connectable=0;fillColor=none;top=0;left=0;bottom=0;right=0;align=center;spacingLeft=6;fontStyle=5;overflow=hidden;whiteSpace=wrap;html=1;" vertex="1" parent="zQkLF3AgblcyHscI9oYV-246">
          <mxGeometry x="400" width="80" height="40" as="geometry">
            <mxRectangle width="80" height="40" as="alternateBounds" />
          </mxGeometry>
        </mxCell>
        <mxCell id="zQkLF3AgblcyHscI9oYV-352" value="N" style="shape=partialRectangle;connectable=0;fillColor=none;top=0;left=0;bottom=0;right=0;align=center;spacingLeft=6;fontStyle=5;overflow=hidden;whiteSpace=wrap;html=1;" vertex="1" parent="zQkLF3AgblcyHscI9oYV-246">
          <mxGeometry x="480" width="40" height="40" as="geometry">
            <mxRectangle width="40" height="40" as="alternateBounds" />
          </mxGeometry>
        </mxCell>
        <mxCell id="zQkLF3AgblcyHscI9oYV-252" value="" style="shape=tableRow;horizontal=0;startSize=0;swimlaneHead=0;swimlaneBody=0;fillColor=none;collapsible=0;dropTarget=0;points=[[0,0.5],[1,0.5]];portConstraint=eastwest;top=0;left=0;right=0;bottom=1;" vertex="1" parent="zQkLF3AgblcyHscI9oYV-233">
          <mxGeometry y="160" width="520" height="40" as="geometry" />
        </mxCell>
        <mxCell id="zQkLF3AgblcyHscI9oYV-253" value="" style="shape=partialRectangle;connectable=0;fillColor=none;top=0;left=0;bottom=0;right=0;fontStyle=1;overflow=hidden;whiteSpace=wrap;html=1;" vertex="1" parent="zQkLF3AgblcyHscI9oYV-252">
          <mxGeometry width="40" height="40" as="geometry">
            <mxRectangle width="40" height="40" as="alternateBounds" />
          </mxGeometry>
        </mxCell>
        <mxCell id="zQkLF3AgblcyHscI9oYV-254" value="내용" style="shape=partialRectangle;connectable=0;fillColor=none;top=0;left=0;bottom=0;right=0;align=center;spacingLeft=6;fontStyle=5;overflow=hidden;whiteSpace=wrap;html=1;" vertex="1" parent="zQkLF3AgblcyHscI9oYV-252">
          <mxGeometry x="40" width="120" height="40" as="geometry">
            <mxRectangle width="120" height="40" as="alternateBounds" />
          </mxGeometry>
        </mxCell>
        <mxCell id="zQkLF3AgblcyHscI9oYV-255" value="detail" style="shape=partialRectangle;connectable=0;fillColor=none;top=0;left=0;bottom=0;right=0;align=center;spacingLeft=6;fontStyle=5;overflow=hidden;whiteSpace=wrap;html=1;" vertex="1" parent="zQkLF3AgblcyHscI9oYV-252">
          <mxGeometry x="160" width="120" height="40" as="geometry">
            <mxRectangle width="120" height="40" as="alternateBounds" />
          </mxGeometry>
        </mxCell>
        <mxCell id="zQkLF3AgblcyHscI9oYV-256" value="varchar2(1200)" style="shape=partialRectangle;connectable=0;fillColor=none;top=0;left=0;bottom=0;right=0;align=center;spacingLeft=6;fontStyle=5;overflow=hidden;whiteSpace=wrap;html=1;" vertex="1" parent="zQkLF3AgblcyHscI9oYV-252">
          <mxGeometry x="280" width="120" height="40" as="geometry">
            <mxRectangle width="120" height="40" as="alternateBounds" />
          </mxGeometry>
        </mxCell>
        <mxCell id="zQkLF3AgblcyHscI9oYV-257" value="" style="shape=partialRectangle;connectable=0;fillColor=none;top=0;left=0;bottom=0;right=0;align=center;spacingLeft=6;fontStyle=5;overflow=hidden;whiteSpace=wrap;html=1;" vertex="1" parent="zQkLF3AgblcyHscI9oYV-252">
          <mxGeometry x="400" width="80" height="40" as="geometry">
            <mxRectangle width="80" height="40" as="alternateBounds" />
          </mxGeometry>
        </mxCell>
        <mxCell id="zQkLF3AgblcyHscI9oYV-353" value="N" style="shape=partialRectangle;connectable=0;fillColor=none;top=0;left=0;bottom=0;right=0;align=center;spacingLeft=6;fontStyle=5;overflow=hidden;whiteSpace=wrap;html=1;" vertex="1" parent="zQkLF3AgblcyHscI9oYV-252">
          <mxGeometry x="480" width="40" height="40" as="geometry">
            <mxRectangle width="40" height="40" as="alternateBounds" />
          </mxGeometry>
        </mxCell>
        <mxCell id="zQkLF3AgblcyHscI9oYV-258" value="" style="shape=tableRow;horizontal=0;startSize=0;swimlaneHead=0;swimlaneBody=0;fillColor=none;collapsible=0;dropTarget=0;points=[[0,0.5],[1,0.5]];portConstraint=eastwest;top=0;left=0;right=0;bottom=1;" vertex="1" parent="zQkLF3AgblcyHscI9oYV-233">
          <mxGeometry y="200" width="520" height="40" as="geometry" />
        </mxCell>
        <mxCell id="zQkLF3AgblcyHscI9oYV-259" value="" style="shape=partialRectangle;connectable=0;fillColor=none;top=0;left=0;bottom=0;right=0;fontStyle=1;overflow=hidden;whiteSpace=wrap;html=1;" vertex="1" parent="zQkLF3AgblcyHscI9oYV-258">
          <mxGeometry width="40" height="40" as="geometry">
            <mxRectangle width="40" height="40" as="alternateBounds" />
          </mxGeometry>
        </mxCell>
        <mxCell id="zQkLF3AgblcyHscI9oYV-260" value="생성 일자" style="shape=partialRectangle;connectable=0;fillColor=none;top=0;left=0;bottom=0;right=0;align=center;spacingLeft=6;fontStyle=5;overflow=hidden;whiteSpace=wrap;html=1;" vertex="1" parent="zQkLF3AgblcyHscI9oYV-258">
          <mxGeometry x="40" width="120" height="40" as="geometry">
            <mxRectangle width="120" height="40" as="alternateBounds" />
          </mxGeometry>
        </mxCell>
        <mxCell id="zQkLF3AgblcyHscI9oYV-261" value="createDate" style="shape=partialRectangle;connectable=0;fillColor=none;top=0;left=0;bottom=0;right=0;align=center;spacingLeft=6;fontStyle=5;overflow=hidden;whiteSpace=wrap;html=1;" vertex="1" parent="zQkLF3AgblcyHscI9oYV-258">
          <mxGeometry x="160" width="120" height="40" as="geometry">
            <mxRectangle width="120" height="40" as="alternateBounds" />
          </mxGeometry>
        </mxCell>
        <mxCell id="zQkLF3AgblcyHscI9oYV-262" value="date" style="shape=partialRectangle;connectable=0;fillColor=none;top=0;left=0;bottom=0;right=0;align=center;spacingLeft=6;fontStyle=5;overflow=hidden;whiteSpace=wrap;html=1;" vertex="1" parent="zQkLF3AgblcyHscI9oYV-258">
          <mxGeometry x="280" width="120" height="40" as="geometry">
            <mxRectangle width="120" height="40" as="alternateBounds" />
          </mxGeometry>
        </mxCell>
        <mxCell id="zQkLF3AgblcyHscI9oYV-263" value="SYSDATE" style="shape=partialRectangle;connectable=0;fillColor=none;top=0;left=0;bottom=0;right=0;align=center;spacingLeft=6;fontStyle=5;overflow=hidden;whiteSpace=wrap;html=1;" vertex="1" parent="zQkLF3AgblcyHscI9oYV-258">
          <mxGeometry x="400" width="80" height="40" as="geometry">
            <mxRectangle width="80" height="40" as="alternateBounds" />
          </mxGeometry>
        </mxCell>
        <mxCell id="zQkLF3AgblcyHscI9oYV-354" style="shape=partialRectangle;connectable=0;fillColor=none;top=0;left=0;bottom=0;right=0;align=center;spacingLeft=6;fontStyle=5;overflow=hidden;whiteSpace=wrap;html=1;" vertex="1" parent="zQkLF3AgblcyHscI9oYV-258">
          <mxGeometry x="480" width="40" height="40" as="geometry">
            <mxRectangle width="40" height="40" as="alternateBounds" />
          </mxGeometry>
        </mxCell>
        <mxCell id="zQkLF3AgblcyHscI9oYV-264" value="" style="shape=tableRow;horizontal=0;startSize=0;swimlaneHead=0;swimlaneBody=0;fillColor=none;collapsible=0;dropTarget=0;points=[[0,0.5],[1,0.5]];portConstraint=eastwest;top=0;left=0;right=0;bottom=1;" vertex="1" parent="zQkLF3AgblcyHscI9oYV-233">
          <mxGeometry y="240" width="520" height="40" as="geometry" />
        </mxCell>
        <mxCell id="zQkLF3AgblcyHscI9oYV-265" value="" style="shape=partialRectangle;connectable=0;fillColor=none;top=0;left=0;bottom=0;right=0;fontStyle=1;overflow=hidden;whiteSpace=wrap;html=1;" vertex="1" parent="zQkLF3AgblcyHscI9oYV-264">
          <mxGeometry width="40" height="40" as="geometry">
            <mxRectangle width="40" height="40" as="alternateBounds" />
          </mxGeometry>
        </mxCell>
        <mxCell id="zQkLF3AgblcyHscI9oYV-266" value="수정 일자" style="shape=partialRectangle;connectable=0;fillColor=none;top=0;left=0;bottom=0;right=0;align=center;spacingLeft=6;fontStyle=5;overflow=hidden;whiteSpace=wrap;html=1;" vertex="1" parent="zQkLF3AgblcyHscI9oYV-264">
          <mxGeometry x="40" width="120" height="40" as="geometry">
            <mxRectangle width="120" height="40" as="alternateBounds" />
          </mxGeometry>
        </mxCell>
        <mxCell id="zQkLF3AgblcyHscI9oYV-267" value="changeDate" style="shape=partialRectangle;connectable=0;fillColor=none;top=0;left=0;bottom=0;right=0;align=center;spacingLeft=6;fontStyle=5;overflow=hidden;whiteSpace=wrap;html=1;" vertex="1" parent="zQkLF3AgblcyHscI9oYV-264">
          <mxGeometry x="160" width="120" height="40" as="geometry">
            <mxRectangle width="120" height="40" as="alternateBounds" />
          </mxGeometry>
        </mxCell>
        <mxCell id="zQkLF3AgblcyHscI9oYV-268" value="date" style="shape=partialRectangle;connectable=0;fillColor=none;top=0;left=0;bottom=0;right=0;align=center;spacingLeft=6;fontStyle=5;overflow=hidden;whiteSpace=wrap;html=1;" vertex="1" parent="zQkLF3AgblcyHscI9oYV-264">
          <mxGeometry x="280" width="120" height="40" as="geometry">
            <mxRectangle width="120" height="40" as="alternateBounds" />
          </mxGeometry>
        </mxCell>
        <mxCell id="zQkLF3AgblcyHscI9oYV-269" value="SYSDATE" style="shape=partialRectangle;connectable=0;fillColor=none;top=0;left=0;bottom=0;right=0;align=center;spacingLeft=6;fontStyle=5;overflow=hidden;whiteSpace=wrap;html=1;" vertex="1" parent="zQkLF3AgblcyHscI9oYV-264">
          <mxGeometry x="400" width="80" height="40" as="geometry">
            <mxRectangle width="80" height="40" as="alternateBounds" />
          </mxGeometry>
        </mxCell>
        <mxCell id="zQkLF3AgblcyHscI9oYV-355" style="shape=partialRectangle;connectable=0;fillColor=none;top=0;left=0;bottom=0;right=0;align=center;spacingLeft=6;fontStyle=5;overflow=hidden;whiteSpace=wrap;html=1;" vertex="1" parent="zQkLF3AgblcyHscI9oYV-264">
          <mxGeometry x="480" width="40" height="40" as="geometry">
            <mxRectangle width="40" height="40" as="alternateBounds" />
          </mxGeometry>
        </mxCell>
        <mxCell id="zQkLF3AgblcyHscI9oYV-356" value="FileUpload" style="shape=table;startSize=40;container=1;collapsible=1;childLayout=tableLayout;fixedRows=1;rowLines=0;fontStyle=1;align=center;resizeLast=1;html=1;" vertex="1" parent="1">
          <mxGeometry x="640" y="80" width="520" height="360" as="geometry" />
        </mxCell>
        <mxCell id="zQkLF3AgblcyHscI9oYV-357" style="shape=tableRow;horizontal=0;startSize=0;swimlaneHead=0;swimlaneBody=0;fillColor=none;collapsible=0;dropTarget=0;points=[[0,0.5],[1,0.5]];portConstraint=eastwest;top=0;left=0;right=0;bottom=1;" vertex="1" parent="zQkLF3AgblcyHscI9oYV-356">
          <mxGeometry y="40" width="520" height="40" as="geometry" />
        </mxCell>
        <mxCell id="zQkLF3AgblcyHscI9oYV-358" style="shape=partialRectangle;connectable=0;fillColor=none;top=0;left=0;bottom=0;right=0;fontStyle=1;overflow=hidden;whiteSpace=wrap;html=1;" vertex="1" parent="zQkLF3AgblcyHscI9oYV-357">
          <mxGeometry width="40" height="40" as="geometry">
            <mxRectangle width="40" height="40" as="alternateBounds" />
          </mxGeometry>
        </mxCell>
        <mxCell id="zQkLF3AgblcyHscI9oYV-359" value="Logical Name" style="shape=partialRectangle;connectable=0;fillColor=none;top=0;left=0;bottom=0;right=0;align=center;spacingLeft=6;fontStyle=5;overflow=hidden;whiteSpace=wrap;html=1;" vertex="1" parent="zQkLF3AgblcyHscI9oYV-357">
          <mxGeometry x="40" width="120" height="40" as="geometry">
            <mxRectangle width="120" height="40" as="alternateBounds" />
          </mxGeometry>
        </mxCell>
        <mxCell id="zQkLF3AgblcyHscI9oYV-360" value="Physical" style="shape=partialRectangle;connectable=0;fillColor=none;top=0;left=0;bottom=0;right=0;align=center;spacingLeft=6;fontStyle=5;overflow=hidden;whiteSpace=wrap;html=1;" vertex="1" parent="zQkLF3AgblcyHscI9oYV-357">
          <mxGeometry x="160" width="120" height="40" as="geometry">
            <mxRectangle width="120" height="40" as="alternateBounds" />
          </mxGeometry>
        </mxCell>
        <mxCell id="zQkLF3AgblcyHscI9oYV-361" value="Type" style="shape=partialRectangle;connectable=0;fillColor=none;top=0;left=0;bottom=0;right=0;align=center;spacingLeft=6;fontStyle=5;overflow=hidden;whiteSpace=wrap;html=1;" vertex="1" parent="zQkLF3AgblcyHscI9oYV-357">
          <mxGeometry x="280" width="120" height="40" as="geometry">
            <mxRectangle width="120" height="40" as="alternateBounds" />
          </mxGeometry>
        </mxCell>
        <mxCell id="zQkLF3AgblcyHscI9oYV-362" value="Default" style="shape=partialRectangle;connectable=0;fillColor=none;top=0;left=0;bottom=0;right=0;align=center;spacingLeft=6;fontStyle=5;overflow=hidden;whiteSpace=wrap;html=1;" vertex="1" parent="zQkLF3AgblcyHscI9oYV-357">
          <mxGeometry x="400" width="80" height="40" as="geometry">
            <mxRectangle width="80" height="40" as="alternateBounds" />
          </mxGeometry>
        </mxCell>
        <mxCell id="zQkLF3AgblcyHscI9oYV-363" value="Null" style="shape=partialRectangle;connectable=0;fillColor=none;top=0;left=0;bottom=0;right=0;align=center;spacingLeft=6;fontStyle=5;overflow=hidden;whiteSpace=wrap;html=1;" vertex="1" parent="zQkLF3AgblcyHscI9oYV-357">
          <mxGeometry x="480" width="40" height="40" as="geometry">
            <mxRectangle width="40" height="40" as="alternateBounds" />
          </mxGeometry>
        </mxCell>
        <mxCell id="zQkLF3AgblcyHscI9oYV-364" value="" style="shape=tableRow;horizontal=0;startSize=0;swimlaneHead=0;swimlaneBody=0;fillColor=none;collapsible=0;dropTarget=0;points=[[0,0.5],[1,0.5]];portConstraint=eastwest;top=0;left=0;right=0;bottom=1;" vertex="1" parent="zQkLF3AgblcyHscI9oYV-356">
          <mxGeometry y="80" width="520" height="40" as="geometry" />
        </mxCell>
        <mxCell id="zQkLF3AgblcyHscI9oYV-365" value="PK" style="shape=partialRectangle;connectable=0;fillColor=none;top=0;left=0;bottom=0;right=0;fontStyle=1;overflow=hidden;whiteSpace=wrap;html=1;" vertex="1" parent="zQkLF3AgblcyHscI9oYV-364">
          <mxGeometry width="40" height="40" as="geometry">
            <mxRectangle width="40" height="40" as="alternateBounds" />
          </mxGeometry>
        </mxCell>
        <mxCell id="zQkLF3AgblcyHscI9oYV-366" value="파일 번호" style="shape=partialRectangle;connectable=0;fillColor=none;top=0;left=0;bottom=0;right=0;align=center;spacingLeft=6;fontStyle=5;overflow=hidden;whiteSpace=wrap;html=1;" vertex="1" parent="zQkLF3AgblcyHscI9oYV-364">
          <mxGeometry x="40" width="120" height="40" as="geometry">
            <mxRectangle width="120" height="40" as="alternateBounds" />
          </mxGeometry>
        </mxCell>
        <mxCell id="zQkLF3AgblcyHscI9oYV-367" value="fileBno" style="shape=partialRectangle;connectable=0;fillColor=none;top=0;left=0;bottom=0;right=0;align=center;spacingLeft=6;fontStyle=5;overflow=hidden;whiteSpace=wrap;html=1;" vertex="1" parent="zQkLF3AgblcyHscI9oYV-364">
          <mxGeometry x="160" width="120" height="40" as="geometry">
            <mxRectangle width="120" height="40" as="alternateBounds" />
          </mxGeometry>
        </mxCell>
        <mxCell id="zQkLF3AgblcyHscI9oYV-368" value="number(10, 0)" style="shape=partialRectangle;connectable=0;fillColor=none;top=0;left=0;bottom=0;right=0;align=center;spacingLeft=6;fontStyle=5;overflow=hidden;whiteSpace=wrap;html=1;" vertex="1" parent="zQkLF3AgblcyHscI9oYV-364">
          <mxGeometry x="280" width="120" height="40" as="geometry">
            <mxRectangle width="120" height="40" as="alternateBounds" />
          </mxGeometry>
        </mxCell>
        <mxCell id="zQkLF3AgblcyHscI9oYV-369" value="" style="shape=partialRectangle;connectable=0;fillColor=none;top=0;left=0;bottom=0;right=0;align=center;spacingLeft=6;fontStyle=5;overflow=hidden;whiteSpace=wrap;html=1;" vertex="1" parent="zQkLF3AgblcyHscI9oYV-364">
          <mxGeometry x="400" width="80" height="40" as="geometry">
            <mxRectangle width="80" height="40" as="alternateBounds" />
          </mxGeometry>
        </mxCell>
        <mxCell id="zQkLF3AgblcyHscI9oYV-370" value="" style="shape=partialRectangle;connectable=0;fillColor=none;top=0;left=0;bottom=0;right=0;align=center;spacingLeft=6;fontStyle=5;overflow=hidden;whiteSpace=wrap;html=1;" vertex="1" parent="zQkLF3AgblcyHscI9oYV-364">
          <mxGeometry x="480" width="40" height="40" as="geometry">
            <mxRectangle width="40" height="40" as="alternateBounds" />
          </mxGeometry>
        </mxCell>
        <mxCell id="zQkLF3AgblcyHscI9oYV-371" value="" style="shape=tableRow;horizontal=0;startSize=0;swimlaneHead=0;swimlaneBody=0;fillColor=none;collapsible=0;dropTarget=0;points=[[0,0.5],[1,0.5]];portConstraint=eastwest;top=0;left=0;right=0;bottom=1;" vertex="1" parent="zQkLF3AgblcyHscI9oYV-356">
          <mxGeometry y="120" width="520" height="40" as="geometry" />
        </mxCell>
        <mxCell id="zQkLF3AgblcyHscI9oYV-372" value="FK" style="shape=partialRectangle;connectable=0;fillColor=none;top=0;left=0;bottom=0;right=0;fontStyle=1;overflow=hidden;whiteSpace=wrap;html=1;" vertex="1" parent="zQkLF3AgblcyHscI9oYV-371">
          <mxGeometry width="40" height="40" as="geometry">
            <mxRectangle width="40" height="40" as="alternateBounds" />
          </mxGeometry>
        </mxCell>
        <mxCell id="zQkLF3AgblcyHscI9oYV-373" value="게시물 번호" style="shape=partialRectangle;connectable=0;fillColor=none;top=0;left=0;bottom=0;right=0;align=center;spacingLeft=6;fontStyle=5;overflow=hidden;whiteSpace=wrap;html=1;" vertex="1" parent="zQkLF3AgblcyHscI9oYV-371">
          <mxGeometry x="40" width="120" height="40" as="geometry">
            <mxRectangle width="120" height="40" as="alternateBounds" />
          </mxGeometry>
        </mxCell>
        <mxCell id="zQkLF3AgblcyHscI9oYV-374" value="bno" style="shape=partialRectangle;connectable=0;fillColor=none;top=0;left=0;bottom=0;right=0;align=center;spacingLeft=6;fontStyle=5;overflow=hidden;whiteSpace=wrap;html=1;" vertex="1" parent="zQkLF3AgblcyHscI9oYV-371">
          <mxGeometry x="160" width="120" height="40" as="geometry">
            <mxRectangle width="120" height="40" as="alternateBounds" />
          </mxGeometry>
        </mxCell>
        <mxCell id="zQkLF3AgblcyHscI9oYV-375" value="number(10, 0)" style="shape=partialRectangle;connectable=0;fillColor=none;top=0;left=0;bottom=0;right=0;align=center;spacingLeft=6;fontStyle=5;overflow=hidden;whiteSpace=wrap;html=1;" vertex="1" parent="zQkLF3AgblcyHscI9oYV-371">
          <mxGeometry x="280" width="120" height="40" as="geometry">
            <mxRectangle width="120" height="40" as="alternateBounds" />
          </mxGeometry>
        </mxCell>
        <mxCell id="zQkLF3AgblcyHscI9oYV-376" value="" style="shape=partialRectangle;connectable=0;fillColor=none;top=0;left=0;bottom=0;right=0;align=center;spacingLeft=6;fontStyle=5;overflow=hidden;whiteSpace=wrap;html=1;" vertex="1" parent="zQkLF3AgblcyHscI9oYV-371">
          <mxGeometry x="400" width="80" height="40" as="geometry">
            <mxRectangle width="80" height="40" as="alternateBounds" />
          </mxGeometry>
        </mxCell>
        <mxCell id="zQkLF3AgblcyHscI9oYV-377" value="" style="shape=partialRectangle;connectable=0;fillColor=none;top=0;left=0;bottom=0;right=0;align=center;spacingLeft=6;fontStyle=5;overflow=hidden;whiteSpace=wrap;html=1;" vertex="1" parent="zQkLF3AgblcyHscI9oYV-371">
          <mxGeometry x="480" width="40" height="40" as="geometry">
            <mxRectangle width="40" height="40" as="alternateBounds" />
          </mxGeometry>
        </mxCell>
        <mxCell id="zQkLF3AgblcyHscI9oYV-378" value="" style="shape=tableRow;horizontal=0;startSize=0;swimlaneHead=0;swimlaneBody=0;fillColor=none;collapsible=0;dropTarget=0;points=[[0,0.5],[1,0.5]];portConstraint=eastwest;top=0;left=0;right=0;bottom=1;" vertex="1" parent="zQkLF3AgblcyHscI9oYV-356">
          <mxGeometry y="160" width="520" height="40" as="geometry" />
        </mxCell>
        <mxCell id="zQkLF3AgblcyHscI9oYV-379" value="" style="shape=partialRectangle;connectable=0;fillColor=none;top=0;left=0;bottom=0;right=0;fontStyle=1;overflow=hidden;whiteSpace=wrap;html=1;" vertex="1" parent="zQkLF3AgblcyHscI9oYV-378">
          <mxGeometry width="40" height="40" as="geometry">
            <mxRectangle width="40" height="40" as="alternateBounds" />
          </mxGeometry>
        </mxCell>
        <mxCell id="zQkLF3AgblcyHscI9oYV-380" value="클라이언트 이름" style="shape=partialRectangle;connectable=0;fillColor=none;top=0;left=0;bottom=0;right=0;align=center;spacingLeft=6;fontStyle=5;overflow=hidden;whiteSpace=wrap;html=1;" vertex="1" parent="zQkLF3AgblcyHscI9oYV-378">
          <mxGeometry x="40" width="120" height="40" as="geometry">
            <mxRectangle width="120" height="40" as="alternateBounds" />
          </mxGeometry>
        </mxCell>
        <mxCell id="zQkLF3AgblcyHscI9oYV-381" value="clientName" style="shape=partialRectangle;connectable=0;fillColor=none;top=0;left=0;bottom=0;right=0;align=center;spacingLeft=6;fontStyle=5;overflow=hidden;whiteSpace=wrap;html=1;" vertex="1" parent="zQkLF3AgblcyHscI9oYV-378">
          <mxGeometry x="160" width="120" height="40" as="geometry">
            <mxRectangle width="120" height="40" as="alternateBounds" />
          </mxGeometry>
        </mxCell>
        <mxCell id="zQkLF3AgblcyHscI9oYV-382" value="varchar(90)" style="shape=partialRectangle;connectable=0;fillColor=none;top=0;left=0;bottom=0;right=0;align=center;spacingLeft=6;fontStyle=5;overflow=hidden;whiteSpace=wrap;html=1;" vertex="1" parent="zQkLF3AgblcyHscI9oYV-378">
          <mxGeometry x="280" width="120" height="40" as="geometry">
            <mxRectangle width="120" height="40" as="alternateBounds" />
          </mxGeometry>
        </mxCell>
        <mxCell id="zQkLF3AgblcyHscI9oYV-383" value="" style="shape=partialRectangle;connectable=0;fillColor=none;top=0;left=0;bottom=0;right=0;align=center;spacingLeft=6;fontStyle=5;overflow=hidden;whiteSpace=wrap;html=1;" vertex="1" parent="zQkLF3AgblcyHscI9oYV-378">
          <mxGeometry x="400" width="80" height="40" as="geometry">
            <mxRectangle width="80" height="40" as="alternateBounds" />
          </mxGeometry>
        </mxCell>
        <mxCell id="zQkLF3AgblcyHscI9oYV-384" value="N" style="shape=partialRectangle;connectable=0;fillColor=none;top=0;left=0;bottom=0;right=0;align=center;spacingLeft=6;fontStyle=5;overflow=hidden;whiteSpace=wrap;html=1;" vertex="1" parent="zQkLF3AgblcyHscI9oYV-378">
          <mxGeometry x="480" width="40" height="40" as="geometry">
            <mxRectangle width="40" height="40" as="alternateBounds" />
          </mxGeometry>
        </mxCell>
        <mxCell id="zQkLF3AgblcyHscI9oYV-399" value="" style="shape=tableRow;horizontal=0;startSize=0;swimlaneHead=0;swimlaneBody=0;fillColor=none;collapsible=0;dropTarget=0;points=[[0,0.5],[1,0.5]];portConstraint=eastwest;top=0;left=0;right=0;bottom=1;" vertex="1" parent="zQkLF3AgblcyHscI9oYV-356">
          <mxGeometry y="200" width="520" height="40" as="geometry" />
        </mxCell>
        <mxCell id="zQkLF3AgblcyHscI9oYV-400" value="" style="shape=partialRectangle;connectable=0;fillColor=none;top=0;left=0;bottom=0;right=0;fontStyle=1;overflow=hidden;whiteSpace=wrap;html=1;" vertex="1" parent="zQkLF3AgblcyHscI9oYV-399">
          <mxGeometry width="40" height="40" as="geometry">
            <mxRectangle width="40" height="40" as="alternateBounds" />
          </mxGeometry>
        </mxCell>
        <mxCell id="zQkLF3AgblcyHscI9oYV-401" value="서버 이름" style="shape=partialRectangle;connectable=0;fillColor=none;top=0;left=0;bottom=0;right=0;align=center;spacingLeft=6;fontStyle=5;overflow=hidden;whiteSpace=wrap;html=1;" vertex="1" parent="zQkLF3AgblcyHscI9oYV-399">
          <mxGeometry x="40" width="120" height="40" as="geometry">
            <mxRectangle width="120" height="40" as="alternateBounds" />
          </mxGeometry>
        </mxCell>
        <mxCell id="zQkLF3AgblcyHscI9oYV-402" value="serverName" style="shape=partialRectangle;connectable=0;fillColor=none;top=0;left=0;bottom=0;right=0;align=center;spacingLeft=6;fontStyle=5;overflow=hidden;whiteSpace=wrap;html=1;" vertex="1" parent="zQkLF3AgblcyHscI9oYV-399">
          <mxGeometry x="160" width="120" height="40" as="geometry">
            <mxRectangle width="120" height="40" as="alternateBounds" />
          </mxGeometry>
        </mxCell>
        <mxCell id="zQkLF3AgblcyHscI9oYV-403" value="varchar(90)" style="shape=partialRectangle;connectable=0;fillColor=none;top=0;left=0;bottom=0;right=0;align=center;spacingLeft=6;fontStyle=5;overflow=hidden;whiteSpace=wrap;html=1;" vertex="1" parent="zQkLF3AgblcyHscI9oYV-399">
          <mxGeometry x="280" width="120" height="40" as="geometry">
            <mxRectangle width="120" height="40" as="alternateBounds" />
          </mxGeometry>
        </mxCell>
        <mxCell id="zQkLF3AgblcyHscI9oYV-404" value="" style="shape=partialRectangle;connectable=0;fillColor=none;top=0;left=0;bottom=0;right=0;align=center;spacingLeft=6;fontStyle=5;overflow=hidden;whiteSpace=wrap;html=1;" vertex="1" parent="zQkLF3AgblcyHscI9oYV-399">
          <mxGeometry x="400" width="80" height="40" as="geometry">
            <mxRectangle width="80" height="40" as="alternateBounds" />
          </mxGeometry>
        </mxCell>
        <mxCell id="zQkLF3AgblcyHscI9oYV-405" value="N" style="shape=partialRectangle;connectable=0;fillColor=none;top=0;left=0;bottom=0;right=0;align=center;spacingLeft=6;fontStyle=5;overflow=hidden;whiteSpace=wrap;html=1;" vertex="1" parent="zQkLF3AgblcyHscI9oYV-399">
          <mxGeometry x="480" width="40" height="40" as="geometry">
            <mxRectangle width="40" height="40" as="alternateBounds" />
          </mxGeometry>
        </mxCell>
        <mxCell id="zQkLF3AgblcyHscI9oYV-385" value="" style="shape=tableRow;horizontal=0;startSize=0;swimlaneHead=0;swimlaneBody=0;fillColor=none;collapsible=0;dropTarget=0;points=[[0,0.5],[1,0.5]];portConstraint=eastwest;top=0;left=0;right=0;bottom=1;" vertex="1" parent="zQkLF3AgblcyHscI9oYV-356">
          <mxGeometry y="240" width="520" height="40" as="geometry" />
        </mxCell>
        <mxCell id="zQkLF3AgblcyHscI9oYV-386" value="" style="shape=partialRectangle;connectable=0;fillColor=none;top=0;left=0;bottom=0;right=0;fontStyle=1;overflow=hidden;whiteSpace=wrap;html=1;" vertex="1" parent="zQkLF3AgblcyHscI9oYV-385">
          <mxGeometry width="40" height="40" as="geometry">
            <mxRectangle width="40" height="40" as="alternateBounds" />
          </mxGeometry>
        </mxCell>
        <mxCell id="zQkLF3AgblcyHscI9oYV-387" value="저장 위치" style="shape=partialRectangle;connectable=0;fillColor=none;top=0;left=0;bottom=0;right=0;align=center;spacingLeft=6;fontStyle=5;overflow=hidden;whiteSpace=wrap;html=1;" vertex="1" parent="zQkLF3AgblcyHscI9oYV-385">
          <mxGeometry x="40" width="120" height="40" as="geometry">
            <mxRectangle width="120" height="40" as="alternateBounds" />
          </mxGeometry>
        </mxCell>
        <mxCell id="zQkLF3AgblcyHscI9oYV-388" value="path" style="shape=partialRectangle;connectable=0;fillColor=none;top=0;left=0;bottom=0;right=0;align=center;spacingLeft=6;fontStyle=5;overflow=hidden;whiteSpace=wrap;html=1;" vertex="1" parent="zQkLF3AgblcyHscI9oYV-385">
          <mxGeometry x="160" width="120" height="40" as="geometry">
            <mxRectangle width="120" height="40" as="alternateBounds" />
          </mxGeometry>
        </mxCell>
        <mxCell id="zQkLF3AgblcyHscI9oYV-389" value="varchar(300)" style="shape=partialRectangle;connectable=0;fillColor=none;top=0;left=0;bottom=0;right=0;align=center;spacingLeft=6;fontStyle=5;overflow=hidden;whiteSpace=wrap;html=1;" vertex="1" parent="zQkLF3AgblcyHscI9oYV-385">
          <mxGeometry x="280" width="120" height="40" as="geometry">
            <mxRectangle width="120" height="40" as="alternateBounds" />
          </mxGeometry>
        </mxCell>
        <mxCell id="zQkLF3AgblcyHscI9oYV-390" value="" style="shape=partialRectangle;connectable=0;fillColor=none;top=0;left=0;bottom=0;right=0;align=center;spacingLeft=6;fontStyle=5;overflow=hidden;whiteSpace=wrap;html=1;" vertex="1" parent="zQkLF3AgblcyHscI9oYV-385">
          <mxGeometry x="400" width="80" height="40" as="geometry">
            <mxRectangle width="80" height="40" as="alternateBounds" />
          </mxGeometry>
        </mxCell>
        <mxCell id="zQkLF3AgblcyHscI9oYV-391" value="N" style="shape=partialRectangle;connectable=0;fillColor=none;top=0;left=0;bottom=0;right=0;align=center;spacingLeft=6;fontStyle=5;overflow=hidden;whiteSpace=wrap;html=1;" vertex="1" parent="zQkLF3AgblcyHscI9oYV-385">
          <mxGeometry x="480" width="40" height="40" as="geometry">
            <mxRectangle width="40" height="40" as="alternateBounds" />
          </mxGeometry>
        </mxCell>
        <mxCell id="zQkLF3AgblcyHscI9oYV-392" value="" style="shape=tableRow;horizontal=0;startSize=0;swimlaneHead=0;swimlaneBody=0;fillColor=none;collapsible=0;dropTarget=0;points=[[0,0.5],[1,0.5]];portConstraint=eastwest;top=0;left=0;right=0;bottom=1;" vertex="1" parent="zQkLF3AgblcyHscI9oYV-356">
          <mxGeometry y="280" width="520" height="40" as="geometry" />
        </mxCell>
        <mxCell id="zQkLF3AgblcyHscI9oYV-393" value="" style="shape=partialRectangle;connectable=0;fillColor=none;top=0;left=0;bottom=0;right=0;fontStyle=1;overflow=hidden;whiteSpace=wrap;html=1;" vertex="1" parent="zQkLF3AgblcyHscI9oYV-392">
          <mxGeometry width="40" height="40" as="geometry">
            <mxRectangle width="40" height="40" as="alternateBounds" />
          </mxGeometry>
        </mxCell>
        <mxCell id="zQkLF3AgblcyHscI9oYV-394" value="생성 일자" style="shape=partialRectangle;connectable=0;fillColor=none;top=0;left=0;bottom=0;right=0;align=center;spacingLeft=6;fontStyle=5;overflow=hidden;whiteSpace=wrap;html=1;" vertex="1" parent="zQkLF3AgblcyHscI9oYV-392">
          <mxGeometry x="40" width="120" height="40" as="geometry">
            <mxRectangle width="120" height="40" as="alternateBounds" />
          </mxGeometry>
        </mxCell>
        <mxCell id="zQkLF3AgblcyHscI9oYV-395" value="createDate" style="shape=partialRectangle;connectable=0;fillColor=none;top=0;left=0;bottom=0;right=0;align=center;spacingLeft=6;fontStyle=5;overflow=hidden;whiteSpace=wrap;html=1;" vertex="1" parent="zQkLF3AgblcyHscI9oYV-392">
          <mxGeometry x="160" width="120" height="40" as="geometry">
            <mxRectangle width="120" height="40" as="alternateBounds" />
          </mxGeometry>
        </mxCell>
        <mxCell id="zQkLF3AgblcyHscI9oYV-396" value="date" style="shape=partialRectangle;connectable=0;fillColor=none;top=0;left=0;bottom=0;right=0;align=center;spacingLeft=6;fontStyle=5;overflow=hidden;whiteSpace=wrap;html=1;" vertex="1" parent="zQkLF3AgblcyHscI9oYV-392">
          <mxGeometry x="280" width="120" height="40" as="geometry">
            <mxRectangle width="120" height="40" as="alternateBounds" />
          </mxGeometry>
        </mxCell>
        <mxCell id="zQkLF3AgblcyHscI9oYV-397" value="SYSDATE" style="shape=partialRectangle;connectable=0;fillColor=none;top=0;left=0;bottom=0;right=0;align=center;spacingLeft=6;fontStyle=5;overflow=hidden;whiteSpace=wrap;html=1;" vertex="1" parent="zQkLF3AgblcyHscI9oYV-392">
          <mxGeometry x="400" width="80" height="40" as="geometry">
            <mxRectangle width="80" height="40" as="alternateBounds" />
          </mxGeometry>
        </mxCell>
        <mxCell id="zQkLF3AgblcyHscI9oYV-398" value="" style="shape=partialRectangle;connectable=0;fillColor=none;top=0;left=0;bottom=0;right=0;align=center;spacingLeft=6;fontStyle=5;overflow=hidden;whiteSpace=wrap;html=1;" vertex="1" parent="zQkLF3AgblcyHscI9oYV-392">
          <mxGeometry x="480" width="40" height="40" as="geometry">
            <mxRectangle width="40" height="40" as="alternateBounds" />
          </mxGeometry>
        </mxCell>
        <mxCell id="zQkLF3AgblcyHscI9oYV-406" value="" style="shape=tableRow;horizontal=0;startSize=0;swimlaneHead=0;swimlaneBody=0;fillColor=none;collapsible=0;dropTarget=0;points=[[0,0.5],[1,0.5]];portConstraint=eastwest;top=0;left=0;right=0;bottom=1;" vertex="1" parent="zQkLF3AgblcyHscI9oYV-356">
          <mxGeometry y="320" width="520" height="40" as="geometry" />
        </mxCell>
        <mxCell id="zQkLF3AgblcyHscI9oYV-407" value="" style="shape=partialRectangle;connectable=0;fillColor=none;top=0;left=0;bottom=0;right=0;fontStyle=1;overflow=hidden;whiteSpace=wrap;html=1;" vertex="1" parent="zQkLF3AgblcyHscI9oYV-406">
          <mxGeometry width="40" height="40" as="geometry">
            <mxRectangle width="40" height="40" as="alternateBounds" />
          </mxGeometry>
        </mxCell>
        <mxCell id="zQkLF3AgblcyHscI9oYV-408" value="수정 일자" style="shape=partialRectangle;connectable=0;fillColor=none;top=0;left=0;bottom=0;right=0;align=center;spacingLeft=6;fontStyle=5;overflow=hidden;whiteSpace=wrap;html=1;" vertex="1" parent="zQkLF3AgblcyHscI9oYV-406">
          <mxGeometry x="40" width="120" height="40" as="geometry">
            <mxRectangle width="120" height="40" as="alternateBounds" />
          </mxGeometry>
        </mxCell>
        <mxCell id="zQkLF3AgblcyHscI9oYV-409" value="changeDate" style="shape=partialRectangle;connectable=0;fillColor=none;top=0;left=0;bottom=0;right=0;align=center;spacingLeft=6;fontStyle=5;overflow=hidden;whiteSpace=wrap;html=1;" vertex="1" parent="zQkLF3AgblcyHscI9oYV-406">
          <mxGeometry x="160" width="120" height="40" as="geometry">
            <mxRectangle width="120" height="40" as="alternateBounds" />
          </mxGeometry>
        </mxCell>
        <mxCell id="zQkLF3AgblcyHscI9oYV-410" value="date" style="shape=partialRectangle;connectable=0;fillColor=none;top=0;left=0;bottom=0;right=0;align=center;spacingLeft=6;fontStyle=5;overflow=hidden;whiteSpace=wrap;html=1;" vertex="1" parent="zQkLF3AgblcyHscI9oYV-406">
          <mxGeometry x="280" width="120" height="40" as="geometry">
            <mxRectangle width="120" height="40" as="alternateBounds" />
          </mxGeometry>
        </mxCell>
        <mxCell id="zQkLF3AgblcyHscI9oYV-411" value="SYSDATE" style="shape=partialRectangle;connectable=0;fillColor=none;top=0;left=0;bottom=0;right=0;align=center;spacingLeft=6;fontStyle=5;overflow=hidden;whiteSpace=wrap;html=1;" vertex="1" parent="zQkLF3AgblcyHscI9oYV-406">
          <mxGeometry x="400" width="80" height="40" as="geometry">
            <mxRectangle width="80" height="40" as="alternateBounds" />
          </mxGeometry>
        </mxCell>
        <mxCell id="zQkLF3AgblcyHscI9oYV-412" value="" style="shape=partialRectangle;connectable=0;fillColor=none;top=0;left=0;bottom=0;right=0;align=center;spacingLeft=6;fontStyle=5;overflow=hidden;whiteSpace=wrap;html=1;" vertex="1" parent="zQkLF3AgblcyHscI9oYV-406">
          <mxGeometry x="480" width="40" height="40" as="geometry">
            <mxRectangle width="40" height="40" as="alternateBounds" />
          </mxGeometry>
        </mxCell>
        <mxCell id="zQkLF3AgblcyHscI9oYV-423" value="" style="edgeStyle=entityRelationEdgeStyle;fontSize=12;html=1;endArrow=ERmandOne;startArrow=ERmandOne;rounded=0;entryX=0;entryY=0.5;entryDx=0;entryDy=0;exitX=1;exitY=0.5;exitDx=0;exitDy=0;" edge="1" parent="1" source="zQkLF3AgblcyHscI9oYV-240" target="zQkLF3AgblcyHscI9oYV-371">
          <mxGeometry width="100" height="100" relative="1" as="geometry">
            <mxPoint x="534.5" y="270" as="sourcePoint" />
            <mxPoint x="634.5" y="170" as="targetPoint" />
          </mxGeometry>
        </mxCell>
      </root>
    </mxGraphModel>
  </diagram>
</mxfile>
